<?xml version="1.0" standalone="no"?>
<!DOCTYPE svg PUBLIC "-//W3C//DTD SVG 20010904//EN"
 "http://www.w3.org/TR/2001/REC-SVG-20010904/DTD/svg10.dtd">
<svg version="1.0" xmlns="http://www.w3.org/2000/svg"
 width="449.000000pt" height="439.000000pt" viewBox="0 0 439.000000 439.000000"
 preserveAspectRatio="xMidYMid meet">

<g transform="translate(-220.000000,479.000000) scale(0.100000,-0.100000)"
fill="#000000" stroke="none">
<path d="M4535 4579 c-244 -112 -447 -200 -470 -203 -22 -2 -87 -10 -145 -15
-160 -17 -339 -57 -503 -112 -166 -56 -329 -85 -650 -118 -103 -10 -190 -20
-192 -23 -2 -2 25 -197 60 -433 36 -237 65 -433 65 -438 0 -4 -115 -93 -255
-197 -222 -166 -255 -193 -250 -213 2 -12 12 -64 20 -115 40 -241 97 -478 135
-567 24 -56 89 -141 186 -246 72 -77 74 -80 74 -131 0 -57 29 -675 33 -695 1
-7 177 -143 390 -302 l389 -289 106 60 c59 34 217 123 351 199 134 77 247 139
250 139 3 -1 82 -104 175 -231 93 -127 176 -233 184 -236 30 -12 728 146 912
207 52 17 118 46 146 66 66 45 282 266 498 509 228 257 306 350 306 366 0 8
-72 212 -159 454 l-158 440 79 95 c44 52 176 223 294 380 194 259 212 286 196
298 -9 7 -200 129 -424 270 l-407 257 -1 140 -1 140 -370 345 c-204 190 -385
357 -402 371 l-32 26 -430 -198z m488 -499 c77 -72 129 -128 123 -132 -17 -10
-396 -112 -399 -107 -2 2 -29 41 -59 86 -31 45 -68 97 -82 116 l-26 34 142 66
c79 36 148 65 155 64 6 -1 72 -58 146 -127z m-889 -231 c91 -101 239 -314 341
-491 26 -45 45 -68 57 -68 25 0 548 132 670 169 l98 29 312 -190 c172 -104
316 -193 320 -196 8 -8 -160 -222 -262 -334 -107 -117 -290 -267 -658 -536
l-23 -17 132 -195 c72 -107 133 -197 135 -198 3 -5 158 105 299 211 55 42 103
73 106 69 4 -4 41 -103 83 -221 64 -178 74 -216 64 -230 -27 -34 -249 -281
-376 -417 -113 -122 -139 -145 -180 -158 -98 -32 -560 -142 -566 -135 -8 10
-466 634 -525 716 -36 51 -69 92 -73 92 -10 1 -382 -278 -386 -289 -2 -5 26
-48 62 -96 36 -48 66 -90 66 -93 0 -3 -17 -16 -38 -27 -20 -12 -105 -60 -188
-106 l-152 -85 -176 129 -176 130 0 47 c0 25 -7 187 -16 359 l-16 314 -109
110 c-172 173 -175 179 -210 314 -16 65 -26 121 -22 125 7 6 166 76 228 99 21
8 52 -14 286 -205 144 -118 267 -215 273 -215 12 0 469 48 760 80 99 11 181
21 183 23 4 5 -43 467 -49 472 -2 3 -166 -13 -363 -35 -198 -22 -369 -40 -380
-40 -24 0 -475 365 -475 384 0 7 -18 131 -40 276 -22 145 -39 264 -37 265 1 1
67 14 147 29 80 15 211 49 291 76 150 50 302 84 444 99 44 5 83 9 87 10 3 0
27 -22 52 -50z"/>
</g>
</svg>
